<mxfile host="Electron" modified="2023-11-03T15:22:37.183Z" agent="Mozilla/5.0 (Windows NT 10.0; Win64; x64) AppleWebKit/537.36 (KHTML, like Gecko) draw.io/22.0.3 Chrome/114.0.5735.289 Electron/25.8.4 Safari/537.36" etag="wT52173I7O1O_9VOy10Z" version="22.0.3" type="device">
  <diagram name="PÃ¡gina-1" id="T3vIdd279M6iwpbkGh04">
    <mxGraphModel dx="1674" dy="844" grid="1" gridSize="10" guides="1" tooltips="1" connect="1" arrows="1" fold="1" page="1" pageScale="1" pageWidth="827" pageHeight="1169" math="0" shadow="0">
      <root>
        <mxCell id="0" />
        <mxCell id="1" parent="0" />
        <mxCell id="uYRi3HvKvjKrillYkW_8-1" value="MaquinaDeVideojuegos" style="swimlane;fontStyle=1;align=center;verticalAlign=top;childLayout=stackLayout;horizontal=1;startSize=26;horizontalStack=0;resizeParent=1;resizeParentMax=0;resizeLast=0;collapsible=1;marginBottom=0;whiteSpace=wrap;html=1;" vertex="1" parent="1">
          <mxGeometry x="100" y="220" width="160" height="164" as="geometry" />
        </mxCell>
        <mxCell id="uYRi3HvKvjKrillYkW_8-2" value="- fichas : int" style="text;strokeColor=none;fillColor=none;align=left;verticalAlign=top;spacingLeft=4;spacingRight=4;overflow=hidden;rotatable=0;points=[[0,0.5],[1,0.5]];portConstraint=eastwest;whiteSpace=wrap;html=1;" vertex="1" parent="uYRi3HvKvjKrillYkW_8-1">
          <mxGeometry y="26" width="160" height="26" as="geometry" />
        </mxCell>
        <mxCell id="uYRi3HvKvjKrillYkW_8-3" value="" style="line;strokeWidth=1;fillColor=none;align=left;verticalAlign=middle;spacingTop=-1;spacingLeft=3;spacingRight=3;rotatable=0;labelPosition=right;points=[];portConstraint=eastwest;strokeColor=inherit;" vertex="1" parent="uYRi3HvKvjKrillYkW_8-1">
          <mxGeometry y="52" width="160" height="8" as="geometry" />
        </mxCell>
        <mxCell id="uYRi3HvKvjKrillYkW_8-4" value="+ MaquinaDeVideoJuegos()" style="text;strokeColor=none;fillColor=none;align=left;verticalAlign=top;spacingLeft=4;spacingRight=4;overflow=hidden;rotatable=0;points=[[0,0.5],[1,0.5]];portConstraint=eastwest;whiteSpace=wrap;html=1;" vertex="1" parent="uYRi3HvKvjKrillYkW_8-1">
          <mxGeometry y="60" width="160" height="26" as="geometry" />
        </mxCell>
        <mxCell id="uYRi3HvKvjKrillYkW_8-5" value="+ PresionarBotonInicio()" style="text;strokeColor=none;fillColor=none;align=left;verticalAlign=top;spacingLeft=4;spacingRight=4;overflow=hidden;rotatable=0;points=[[0,0.5],[1,0.5]];portConstraint=eastwest;whiteSpace=wrap;html=1;" vertex="1" parent="uYRi3HvKvjKrillYkW_8-1">
          <mxGeometry y="86" width="160" height="26" as="geometry" />
        </mxCell>
        <mxCell id="uYRi3HvKvjKrillYkW_8-6" value="+ PonerFicha()" style="text;strokeColor=none;fillColor=none;align=left;verticalAlign=top;spacingLeft=4;spacingRight=4;overflow=hidden;rotatable=0;points=[[0,0.5],[1,0.5]];portConstraint=eastwest;whiteSpace=wrap;html=1;" vertex="1" parent="uYRi3HvKvjKrillYkW_8-1">
          <mxGeometry y="112" width="160" height="26" as="geometry" />
        </mxCell>
        <mxCell id="uYRi3HvKvjKrillYkW_8-7" value="+ TerminarJuego()" style="text;strokeColor=none;fillColor=none;align=left;verticalAlign=top;spacingLeft=4;spacingRight=4;overflow=hidden;rotatable=0;points=[[0,0.5],[1,0.5]];portConstraint=eastwest;whiteSpace=wrap;html=1;" vertex="1" parent="uYRi3HvKvjKrillYkW_8-1">
          <mxGeometry y="138" width="160" height="26" as="geometry" />
        </mxCell>
        <mxCell id="uYRi3HvKvjKrillYkW_8-10" value="&amp;lt;&amp;lt;Interface&amp;gt;&amp;gt;&lt;br&gt;State" style="swimlane;fontStyle=1;align=center;verticalAlign=top;childLayout=stackLayout;horizontal=1;startSize=40;horizontalStack=0;resizeParent=1;resizeParentMax=0;resizeLast=0;collapsible=1;marginBottom=0;whiteSpace=wrap;html=1;" vertex="1" parent="1">
          <mxGeometry x="460" y="240" width="160" height="74" as="geometry" />
        </mxCell>
        <mxCell id="uYRi3HvKvjKrillYkW_8-12" value="" style="line;strokeWidth=1;fillColor=none;align=left;verticalAlign=middle;spacingTop=-1;spacingLeft=3;spacingRight=3;rotatable=0;labelPosition=right;points=[];portConstraint=eastwest;strokeColor=inherit;" vertex="1" parent="uYRi3HvKvjKrillYkW_8-10">
          <mxGeometry y="40" width="160" height="8" as="geometry" />
        </mxCell>
        <mxCell id="uYRi3HvKvjKrillYkW_8-13" value="+ mensaje() : String" style="text;strokeColor=none;fillColor=none;align=left;verticalAlign=top;spacingLeft=4;spacingRight=4;overflow=hidden;rotatable=0;points=[[0,0.5],[1,0.5]];portConstraint=eastwest;whiteSpace=wrap;html=1;" vertex="1" parent="uYRi3HvKvjKrillYkW_8-10">
          <mxGeometry y="48" width="160" height="26" as="geometry" />
        </mxCell>
        <mxCell id="uYRi3HvKvjKrillYkW_8-14" value="estadoJuego" style="endArrow=block;endFill=1;html=1;edgeStyle=orthogonalEdgeStyle;align=left;verticalAlign=top;rounded=0;entryX=0;entryY=0.5;entryDx=0;entryDy=0;" edge="1" parent="1" target="uYRi3HvKvjKrillYkW_8-10">
          <mxGeometry x="-0.2157" y="40" relative="1" as="geometry">
            <mxPoint x="260" y="280" as="sourcePoint" />
            <mxPoint x="420" y="280" as="targetPoint" />
            <mxPoint as="offset" />
          </mxGeometry>
        </mxCell>
        <mxCell id="uYRi3HvKvjKrillYkW_8-15" value="1" style="edgeLabel;resizable=0;html=1;align=left;verticalAlign=bottom;" connectable="0" vertex="1" parent="uYRi3HvKvjKrillYkW_8-14">
          <mxGeometry x="-1" relative="1" as="geometry" />
        </mxCell>
        <mxCell id="uYRi3HvKvjKrillYkW_8-16" value="1" style="text;html=1;align=center;verticalAlign=middle;resizable=0;points=[];autosize=1;strokeColor=none;fillColor=none;" vertex="1" parent="1">
          <mxGeometry x="435" y="248" width="30" height="30" as="geometry" />
        </mxCell>
        <mxCell id="uYRi3HvKvjKrillYkW_8-17" value="InitialState" style="swimlane;fontStyle=1;align=center;verticalAlign=top;childLayout=stackLayout;horizontal=1;startSize=26;horizontalStack=0;resizeParent=1;resizeParentMax=0;resizeLast=0;collapsible=1;marginBottom=0;whiteSpace=wrap;html=1;" vertex="1" parent="1">
          <mxGeometry x="330" y="480" width="160" height="34" as="geometry" />
        </mxCell>
        <mxCell id="uYRi3HvKvjKrillYkW_8-19" value="" style="line;strokeWidth=1;fillColor=none;align=left;verticalAlign=middle;spacingTop=-1;spacingLeft=3;spacingRight=3;rotatable=0;labelPosition=right;points=[];portConstraint=eastwest;strokeColor=inherit;" vertex="1" parent="uYRi3HvKvjKrillYkW_8-17">
          <mxGeometry y="26" width="160" height="8" as="geometry" />
        </mxCell>
        <mxCell id="uYRi3HvKvjKrillYkW_8-21" value="SinglePlayerState" style="swimlane;fontStyle=1;align=center;verticalAlign=top;childLayout=stackLayout;horizontal=1;startSize=26;horizontalStack=0;resizeParent=1;resizeParentMax=0;resizeLast=0;collapsible=1;marginBottom=0;whiteSpace=wrap;html=1;" vertex="1" parent="1">
          <mxGeometry x="520" y="480" width="160" height="34" as="geometry" />
        </mxCell>
        <mxCell id="uYRi3HvKvjKrillYkW_8-22" value="" style="line;strokeWidth=1;fillColor=none;align=left;verticalAlign=middle;spacingTop=-1;spacingLeft=3;spacingRight=3;rotatable=0;labelPosition=right;points=[];portConstraint=eastwest;strokeColor=inherit;" vertex="1" parent="uYRi3HvKvjKrillYkW_8-21">
          <mxGeometry y="26" width="160" height="8" as="geometry" />
        </mxCell>
        <mxCell id="uYRi3HvKvjKrillYkW_8-23" value="MultiPlayerState" style="swimlane;fontStyle=1;align=center;verticalAlign=top;childLayout=stackLayout;horizontal=1;startSize=26;horizontalStack=0;resizeParent=1;resizeParentMax=0;resizeLast=0;collapsible=1;marginBottom=0;whiteSpace=wrap;html=1;" vertex="1" parent="1">
          <mxGeometry x="720" y="480" width="160" height="34" as="geometry" />
        </mxCell>
        <mxCell id="uYRi3HvKvjKrillYkW_8-24" value="" style="line;strokeWidth=1;fillColor=none;align=left;verticalAlign=middle;spacingTop=-1;spacingLeft=3;spacingRight=3;rotatable=0;labelPosition=right;points=[];portConstraint=eastwest;strokeColor=inherit;" vertex="1" parent="uYRi3HvKvjKrillYkW_8-23">
          <mxGeometry y="26" width="160" height="8" as="geometry" />
        </mxCell>
        <mxCell id="uYRi3HvKvjKrillYkW_8-26" value="" style="endArrow=block;dashed=1;endFill=0;endSize=12;html=1;rounded=0;exitX=0.456;exitY=-0.118;exitDx=0;exitDy=0;exitPerimeter=0;entryX=0.4;entryY=1.192;entryDx=0;entryDy=0;entryPerimeter=0;" edge="1" parent="1" source="uYRi3HvKvjKrillYkW_8-17" target="uYRi3HvKvjKrillYkW_8-13">
          <mxGeometry width="160" relative="1" as="geometry">
            <mxPoint x="500" y="430" as="sourcePoint" />
            <mxPoint x="660" y="430" as="targetPoint" />
          </mxGeometry>
        </mxCell>
        <mxCell id="uYRi3HvKvjKrillYkW_8-27" value="" style="endArrow=block;dashed=1;endFill=0;endSize=12;html=1;rounded=0;exitX=0.438;exitY=0;exitDx=0;exitDy=0;exitPerimeter=0;entryX=0.475;entryY=1.115;entryDx=0;entryDy=0;entryPerimeter=0;" edge="1" parent="1" source="uYRi3HvKvjKrillYkW_8-21" target="uYRi3HvKvjKrillYkW_8-13">
          <mxGeometry width="160" relative="1" as="geometry">
            <mxPoint x="413" y="486" as="sourcePoint" />
            <mxPoint x="534" y="329" as="targetPoint" />
          </mxGeometry>
        </mxCell>
        <mxCell id="uYRi3HvKvjKrillYkW_8-28" value="" style="endArrow=block;dashed=1;endFill=0;endSize=12;html=1;rounded=0;entryX=1.013;entryY=1.077;entryDx=0;entryDy=0;entryPerimeter=0;" edge="1" parent="1" target="uYRi3HvKvjKrillYkW_8-13">
          <mxGeometry width="160" relative="1" as="geometry">
            <mxPoint x="750" y="470" as="sourcePoint" />
            <mxPoint x="546" y="327" as="targetPoint" />
            <Array as="points" />
          </mxGeometry>
        </mxCell>
      </root>
    </mxGraphModel>
  </diagram>
</mxfile>
